<svg width="201" height="60" viewBox="0 0 201 60" fill="none" xmlns="http://www.w3.org/2000/svg">
<path d="M196.718 1H4.68691C2.87451 1 1.40527 2.46751 1.40527 4.27778V55.0833C1.40527 56.8936 2.87451 58.3611 4.68691 58.3611H196.718C198.531 58.3611 200 56.8936 200 55.0833V4.27778C200 2.46751 198.531 1 196.718 1Z" fill="black" stroke="black" stroke-width="2"/>
<path d="M48.0099 28.3016C47.9719 23.7641 51.7308 21.5525 51.9058 21.4536C49.7752 18.3527 46.4728 17.9271 45.3086 17.8967C42.5313 17.6079 39.8452 19.5536 38.4299 19.5536C36.9917 19.5536 34.8154 17.9271 32.4642 17.9727C29.4433 18.0183 26.6203 19.7664 25.0756 22.4721C21.8797 27.9976 24.2614 36.1146 27.328 40.5836C28.8574 42.7725 30.6456 45.2123 32.9893 45.1286C35.2796 45.0374 36.1395 43.6693 38.9016 43.6693C41.641 43.6693 42.4475 45.1286 44.8369 45.0754C47.2946 45.0374 48.8469 42.8789 50.3231 40.6749C52.0961 38.1668 52.8038 35.6966 52.8342 35.575C52.7733 35.537 48.0556 33.7358 48.0099 28.3016ZM43.4976 14.9554C44.7303 13.4125 45.5749 11.3224 45.339 9.19434C43.5585 9.2703 41.3213 10.4256 40.043 11.9305C38.9092 13.2605 37.8896 15.4342 38.1559 17.4787C40.1495 17.6231 42.2116 16.4678 43.4976 14.9554Z" fill="white"/>
<path d="M81.2006 44.8021H77.9972L76.2395 39.2994H70.1444L68.4704 44.8021H65.3506L71.3923 26.0597H75.1208L81.2006 44.8021ZM75.7144 36.9889L74.124 32.0944C73.9567 31.5927 73.637 30.4147 73.1805 28.5602H73.1272C72.9446 29.3583 72.6402 30.5363 72.2369 32.0944L70.6771 36.9889H75.7144ZM96.7087 37.8782C96.7087 40.1735 96.0844 41.99 94.8366 43.3277C93.7175 44.5133 92.3253 45.1061 90.6664 45.1061C88.8705 45.1061 87.585 44.4677 86.8015 43.1908V50.2819H83.7955V35.7273C83.7955 34.2833 83.7578 32.8012 83.6815 31.2887H86.3289L86.4971 33.432H86.5496C87.5546 31.8208 89.0765 31.0075 91.1152 31.0075C92.7133 31.0075 94.0449 31.6384 95.1106 32.9C96.1755 34.1617 96.7087 35.8261 96.7087 37.8782ZM93.6494 37.9922C93.6494 36.6774 93.3524 35.5905 92.7593 34.7393C92.112 33.85 91.2374 33.4092 90.1414 33.4092C89.4038 33.4092 88.7262 33.66 88.1248 34.1464C87.5243 34.6405 87.128 35.2865 86.9459 36.0769C86.8622 36.3734 86.8162 36.6849 86.8089 36.9889V39.2462C86.8089 40.2267 87.1132 41.0551 87.7146 41.7392C88.3151 42.4156 89.0994 42.7576 90.0651 42.7576C91.1989 42.7576 92.0816 42.3168 92.7133 41.4504C93.3295 40.5687 93.6494 39.421 93.6494 37.9922ZM112.277 37.8782C112.277 40.1735 111.653 41.99 110.405 43.3277C109.286 44.5133 107.894 45.1061 106.235 45.1061C104.439 45.1061 103.153 44.4677 102.37 43.1908V50.2819H99.3636V35.7273C99.3636 34.2833 99.3258 32.8012 99.2495 31.2887H101.898L102.065 33.432H102.118C103.123 31.8208 104.645 31.0075 106.684 31.0075C108.282 31.0075 109.614 31.6384 110.679 32.9C111.737 34.1617 112.277 35.8261 112.277 37.8782ZM109.21 37.9922C109.21 36.6774 108.914 35.5905 108.32 34.7393C107.673 33.85 106.798 33.4092 105.703 33.4092C104.964 33.4092 104.287 33.66 103.678 34.1464C103.078 34.6405 102.681 35.2865 102.499 36.0769C102.407 36.4493 102.355 36.7533 102.355 36.9889V39.2462C102.355 40.2267 102.659 41.0551 103.26 41.7392C103.861 42.4156 104.645 42.7576 105.619 42.7576C106.752 42.7576 107.635 42.3168 108.267 41.4504C108.898 40.5687 109.21 39.421 109.21 37.9922ZM129.679 39.5503C129.679 41.1464 129.124 42.446 128.013 43.4416C126.796 44.5361 125.083 45.0833 122.899 45.0833C120.883 45.0833 119.263 44.6957 118.037 43.9128L118.729 41.4124C120.046 42.1952 121.499 42.5828 123.074 42.5828C124.208 42.5828 125.091 42.3244 125.722 41.8151C126.354 41.3059 126.673 40.6219 126.673 39.7707C126.673 39.0107 126.407 38.3722 125.89 37.8478C125.372 37.331 124.512 36.8445 123.303 36.4038C120.016 35.1801 118.372 33.3864 118.372 31.038C118.372 29.5026 118.95 28.241 120.114 27.2606C121.271 26.2801 122.808 25.7861 124.726 25.7861C126.43 25.7861 127.853 26.0825 128.987 26.6753L128.234 29.1227C127.168 28.545 125.973 28.2638 124.626 28.2638C123.569 28.2638 122.732 28.5222 122.138 29.039C121.636 29.5026 121.385 30.0651 121.385 30.7339C121.385 31.4711 121.675 32.0868 122.253 32.5656C122.755 33.0064 123.66 33.4928 124.977 34.0097C126.59 34.6633 127.777 35.4157 128.538 36.2898C129.299 37.1638 129.679 38.2506 129.679 39.5503ZM139.647 33.546H136.33V40.1051C136.33 41.7772 136.915 42.6056 138.088 42.6056C138.627 42.6056 139.069 42.56 139.427 42.4688L139.51 44.7489C138.917 44.9693 138.141 45.0833 137.175 45.0833C135.987 45.0833 135.059 44.7185 134.389 43.9965C133.72 43.2744 133.385 42.0583 133.385 40.3559V33.546H131.414V31.2963H133.385V28.8187L136.338 27.9294V31.2963H139.655L139.647 33.546ZM154.569 37.939C154.569 40.0139 153.976 41.724 152.789 43.054C151.548 44.4296 149.897 45.1137 147.835 45.1137C145.849 45.1137 144.266 44.4525 143.086 43.1452C141.907 41.8304 141.322 40.1659 141.322 38.167C141.322 36.0693 141.93 34.3592 143.148 33.0216C144.365 31.6839 146.001 31.0227 148.063 31.0227C150.049 31.0227 151.647 31.6839 152.849 32.9988C153.99 34.268 154.569 35.9173 154.569 37.939ZM151.45 38.0074C151.45 36.7686 151.183 35.7045 150.642 34.8229C150.011 33.7512 149.113 33.2116 147.942 33.2116C146.739 33.2116 145.811 33.7512 145.187 34.8229C144.647 35.7121 144.38 36.7914 144.38 38.0682C144.38 39.307 144.647 40.3711 145.187 41.2604C145.834 42.3319 146.747 42.8716 147.919 42.8716C149.068 42.8716 149.966 42.3244 150.62 41.2376C151.176 40.3179 151.45 39.2462 151.45 38.0074ZM164.347 33.9336C164.035 33.8804 163.716 33.85 163.396 33.85C162.338 33.85 161.524 34.2453 160.946 35.0433C160.444 35.7501 160.193 36.6393 160.193 37.711V44.8021H157.187V35.5449C157.187 34.1237 157.164 32.7099 157.103 31.2887H159.721L159.827 33.8728H159.91C160.23 32.9836 160.725 32.2692 161.418 31.7296C162.041 31.2583 162.81 31.0075 163.593 31.0075C163.876 31.0075 164.118 31.0303 164.347 31.0607V33.9336ZM177.793 37.407C177.8 37.863 177.762 38.319 177.686 38.7674H168.662C168.692 40.1051 169.134 41.1235 169.97 41.8304C170.731 42.4612 171.713 42.7728 172.923 42.7728C174.262 42.7728 175.479 42.56 176.575 42.1344L177.047 44.2168C175.768 44.7717 174.255 45.0529 172.512 45.0529C170.412 45.0529 168.768 44.4373 167.566 43.206C166.371 41.9748 165.77 40.3179 165.77 38.243C165.77 36.2061 166.325 34.5112 167.444 33.1584C168.608 31.7143 170.191 30.9923 172.177 30.9923C174.125 30.9923 175.601 31.7143 176.606 33.1584C177.389 34.3061 177.793 35.7197 177.793 37.407ZM174.924 36.6317C174.947 35.7425 174.749 34.9749 174.338 34.3212C173.821 33.4852 173.014 33.0672 171.941 33.0672C170.96 33.0672 170.161 33.4776 169.544 34.2908C169.042 34.9369 168.745 35.7197 168.654 36.6242L174.924 36.6317Z" fill="white"/>
<path d="M69.2772 19.4396C68.4403 19.4396 67.7174 19.4016 67.1162 19.3332V10.266C67.9609 10.1368 68.8131 10.0684 69.6654 10.076C73.1123 10.076 74.7027 11.7708 74.7027 14.5297C74.6951 17.7143 72.8232 19.4396 69.2772 19.4396ZM69.7871 11.2389C69.3229 11.2389 68.9273 11.2693 68.6001 11.3376V18.2236C68.7751 18.254 69.1175 18.2615 69.5969 18.2615C71.8568 18.2615 73.1428 16.9771 73.1428 14.5754C73.1351 12.4245 71.971 11.2389 69.7871 11.2389ZM79.6487 19.508C77.7083 19.508 76.4452 18.0563 76.4452 16.0878C76.4452 14.0357 77.7311 12.5765 79.7553 12.5765C81.6727 12.5765 82.9589 13.9597 82.9589 15.9814C82.9589 18.0563 81.6347 19.508 79.6487 19.508ZM79.7019 13.6557C78.6366 13.6557 77.9518 14.6514 77.9518 16.0498C77.9518 17.4179 78.6519 18.4135 79.6867 18.4135C80.7292 18.4135 81.4217 17.3495 81.4217 16.0194C81.4292 14.6666 80.7444 13.6557 79.7019 13.6557ZM94.0377 12.7133L91.9605 19.356H90.606L89.7462 16.4754C89.5329 15.7686 89.3507 15.0542 89.2137 14.3322H89.1834C89.0767 15.0542 88.8708 15.7838 88.6501 16.4754L87.737 19.356H86.3677L84.4119 12.7133H85.9337L86.6869 15.8674C86.8624 16.6198 87.0142 17.3267 87.1365 18.0031H87.1668C87.2735 17.4407 87.4556 16.7491 87.7149 15.8827L88.6583 12.7133H89.8602L90.766 15.8142C90.9866 16.5666 91.1614 17.3039 91.2984 18.0031H91.3361C91.4354 17.3191 91.5798 16.597 91.7857 15.8142L92.5922 12.7133H94.0377ZM101.7 19.356H100.224V15.5406C100.224 14.3626 99.7749 13.7773 98.8847 13.7773C98.0102 13.7773 97.4088 14.5298 97.4088 15.4038V19.356H95.9329V14.6133C95.9329 14.0282 95.9173 13.3974 95.8796 12.7133H97.1807L97.2488 13.7393H97.2866C97.6828 13.0325 98.4893 12.5765 99.395 12.5765C100.787 12.5765 101.708 13.6406 101.708 15.381L101.7 19.356ZM105.771 19.356H104.295V9.66553H105.771V19.356ZM111.166 19.508C109.226 19.508 107.963 18.0563 107.963 16.0878C107.963 14.0357 109.249 12.5765 111.273 12.5765C113.19 12.5765 114.477 13.9597 114.477 15.9814C114.477 18.0563 113.145 19.508 111.166 19.508ZM111.22 13.6557C110.154 13.6557 109.47 14.6514 109.47 16.0498C109.47 17.4179 110.169 18.4135 111.204 18.4135C112.247 18.4135 112.939 17.3495 112.939 16.0194C112.939 14.6666 112.262 13.6557 111.22 13.6557ZM120.305 19.356L120.198 18.5883H120.16C119.712 19.2039 119.05 19.5003 118.213 19.5003C117.017 19.5003 116.173 18.6643 116.173 17.5471C116.173 15.9054 117.596 15.0618 120.061 15.0618V14.9402C120.061 14.0661 119.598 13.6253 118.684 13.6253C118.03 13.6253 117.451 13.7926 116.949 14.1194L116.652 13.1465C117.269 12.7665 118.037 12.5689 118.935 12.5689C120.67 12.5689 121.553 13.4809 121.553 15.3126V17.7599C121.553 18.4287 121.583 18.9531 121.652 19.3483L120.305 19.356ZM120.1 16.0498C118.456 16.0498 117.634 16.445 117.634 17.3875C117.634 18.0867 118.06 18.4287 118.646 18.4287C119.4 18.4287 120.1 17.8587 120.1 17.0758V16.0498ZM128.713 19.356L128.645 18.2919H128.606C128.181 19.0976 127.465 19.508 126.468 19.508C124.863 19.508 123.676 18.102 123.676 16.1182C123.676 14.0433 124.909 12.5765 126.59 12.5765C127.481 12.5765 128.112 12.8729 128.462 13.4809H128.492V9.66553H129.968V17.5623C129.968 18.2007 129.984 18.8087 130.022 19.3483H128.713V19.356ZM128.5 15.4494C128.5 14.5221 127.884 13.7242 126.94 13.7242C125.844 13.7242 125.175 14.697 125.175 16.0574C125.175 17.3951 125.867 18.3148 126.91 18.3148C127.838 18.3148 128.5 17.5091 128.5 16.5515V15.4494ZM139.359 19.508C137.418 19.508 136.155 18.0563 136.155 16.0878C136.155 14.0357 137.441 12.5765 139.465 12.5765C141.383 12.5765 142.668 13.9597 142.668 15.9814C142.668 18.0563 141.345 19.508 139.359 19.508ZM139.412 13.6557C138.346 13.6557 137.661 14.6514 137.661 16.0498C137.661 17.4179 138.362 18.4135 139.396 18.4135C140.439 18.4135 141.132 17.3495 141.132 16.0194C141.139 14.6666 140.454 13.6557 139.412 13.6557ZM150.62 19.356H149.144V15.5406C149.144 14.3626 148.695 13.7773 147.805 13.7773C146.929 13.7773 146.329 14.5298 146.329 15.4038V19.356H144.852V14.6133C144.852 14.0282 144.837 13.3974 144.799 12.7133H146.1L146.169 13.7393H146.207C146.603 13.0325 147.409 12.5765 148.314 12.5765C149.707 12.5765 150.628 13.6406 150.628 15.381V19.356H150.62ZM160.558 13.8229H158.93V17.0454C158.93 17.8663 159.211 18.2767 159.789 18.2767C160.048 18.2767 160.268 18.2463 160.444 18.2083L160.482 19.3255C160.193 19.432 159.812 19.4928 159.333 19.4928C158.168 19.4928 157.468 18.8544 157.468 17.1671V13.8154H156.495V12.7057H157.468V11.4896L158.922 11.0488V12.7057H160.551L160.558 13.8229ZM168.388 19.356H166.911V15.571C166.911 14.3854 166.463 13.785 165.572 13.785C164.804 13.785 164.096 14.3018 164.096 15.3582V19.3636H162.62V9.66553H164.096V13.6557H164.127C164.591 12.9337 165.268 12.5765 166.128 12.5765C167.536 12.5765 168.395 13.6709 168.395 15.4038L168.388 19.356ZM176.4 16.3919H171.964C171.995 17.6459 172.824 18.3603 174.057 18.3603C174.711 18.3603 175.32 18.254 175.852 18.0487L176.081 19.0747C175.449 19.3483 174.711 19.4852 173.851 19.4852C171.774 19.4852 170.542 18.1703 170.542 16.141C170.542 14.1041 171.804 12.5765 173.684 12.5765C175.38 12.5765 176.446 13.8305 176.446 15.7306C176.461 15.9435 176.446 16.1714 176.4 16.3919ZM175.046 15.3354C175.046 14.3093 174.529 13.5873 173.585 13.5873C172.733 13.5873 172.063 14.3246 171.972 15.3354H175.046Z" fill="white"/>
</svg>
