<svg width="138" height="138" viewBox="0 0 138 138" fill="none" xmlns="http://www.w3.org/2000/svg">
<g clip-path="url(#clip0_613_99471)">
<path fill-rule="evenodd" clip-rule="evenodd" d="M71.6375 85.4788C72.3572 86.3211 73.0874 87.1602 73.7425 87.8316C85.3645 99.8681 101.143 109.662 117.507 113.182C118.102 113.305 118.7 112.956 118.829 112.357C118.957 111.758 118.585 111.199 117.989 111.076C102.014 107.546 86.658 98.0156 75.3285 86.2772C74.958 85.9059 74.5543 85.4493 74.1471 84.9938C75.4274 84.5566 76.3836 83.8301 77.0846 82.9835C78.1095 81.6738 78.5814 79.9478 78.5947 78.0621C78.6041 75.4247 77.7541 72.5475 76.4373 70.0772C75.4063 68.1891 74.0746 66.5696 72.7353 65.7051C71.6433 64.9625 70.5294 64.6966 69.4804 64.8836C68.3769 65.0851 67.2951 65.845 66.4433 67.4847C64.941 70.2399 65.1203 73.3919 66.2559 76.5694C67.0877 78.8873 68.433 81.1614 69.898 83.2155C69.1145 83.1431 68.2504 82.9981 67.3022 82.7816C60.1212 80.9416 51.9838 74.0887 44.4526 65.473C33.0064 52.3543 23.0038 35.0844 20.1777 24.7375C20.0339 24.2114 19.4116 23.8134 18.8216 23.9715C18.2315 24.1296 17.896 24.7843 18.0398 25.3104C20.9373 35.9205 31.0972 53.5242 42.792 66.9528C50.6648 75.9474 59.2679 83.0529 66.7603 84.9036C68.6374 85.3416 70.2666 85.5638 71.6375 85.4788ZM72.6063 83.1487C73.8318 82.9145 74.7297 82.3917 75.3542 81.6598C76.0922 80.7092 76.3729 79.4107 76.3921 78.0881C76.407 75.8256 75.6395 73.3019 74.4975 71.1612C73.6939 69.6827 72.6882 68.3528 71.6418 67.598C71.0555 67.1905 70.4775 66.9684 69.8956 67.0302C69.3258 67.1829 68.8405 67.6899 68.3696 68.4748C67.1884 70.7675 67.4449 73.3334 68.3397 75.8227C69.2667 78.3974 70.9404 81.0543 72.6063 83.1487Z" fill="#E1BD80"/>
<path fill-rule="evenodd" clip-rule="evenodd" d="M117.893 111.127C111.537 110.478 104.652 111.851 98.7618 114.277C98.1997 114.521 97.9246 115.16 98.1395 115.667C98.3771 116.262 99.0295 116.558 99.5908 116.313C105.168 114.066 111.659 112.703 117.673 113.35C118.271 113.378 118.819 112.949 118.888 112.366C118.934 111.695 118.492 111.155 117.893 111.127Z" fill="#E1BD80"/>
<path fill-rule="evenodd" clip-rule="evenodd" d="M118.206 111.076C112.639 108.521 109.06 102.61 106.816 97.0947C106.601 96.5877 105.948 96.2922 105.386 96.5369C104.824 96.7814 104.55 97.4198 104.789 98.0146C107.215 103.952 111.223 110.312 117.297 113.107C117.848 113.336 118.498 113.067 118.754 112.528C119.011 111.989 118.756 111.305 118.206 111.076Z" fill="#E1BD80"/>
</g>
<defs>
<clipPath id="clip0_613_99471">
<rect width="112" height="112" fill="white" transform="translate(28.9883 137.171) rotate(-105)"/>
</clipPath>
</defs>
</svg>
