<svg width="205" height="59" viewBox="0 0 205 59" fill="none" xmlns="http://www.w3.org/2000/svg">
<path d="M196.852 59H8.00976C3.85711 59 0.456055 55.6794 0.456055 51.625V7.375C0.456055 3.32059 3.85711 7.56029e-07 8.00976 7.56029e-07H196.852C201.005 7.56029e-07 204.406 3.32059 204.406 7.375V51.625C204.406 55.6794 201.005 59 196.852 59Z" fill="black"/>
<path d="M196.852 1.18184C200.35 1.18184 203.196 3.96037 203.196 7.375V51.625C203.196 55.0396 200.35 57.8182 196.852 57.8182H8.00976C4.51239 57.8182 1.66654 55.0396 1.66654 51.625V7.375C1.66654 3.96037 4.51239 1.18184 8.00976 1.18184H196.852ZM196.852 7.56029e-07H8.00976C3.85711 7.56029e-07 0.456055 3.32059 0.456055 7.375V51.625C0.456055 55.6794 3.85711 59 8.00976 59H196.852C201.005 59 204.406 55.6794 204.406 51.625V7.375C204.406 3.32059 201.005 7.56029e-07 196.852 7.56029e-07Z" fill="#A6A6A6"/>
<path d="M72.0918 15.1096C72.0918 16.3413 71.7142 17.3277 70.9701 18.0633C70.1147 18.9354 69.0005 19.3742 67.6352 19.3742C66.3303 19.3742 65.2161 18.928 64.3021 18.0486C63.3862 17.1562 62.9292 16.061 62.9292 14.7501C62.9292 13.4392 63.3862 12.344 64.3021 11.459C65.2161 10.5722 66.3303 10.126 67.6352 10.126C68.2848 10.126 68.9042 10.2569 69.4953 10.5003C70.0844 10.7455 70.5641 11.0774 70.9116 11.4867L70.1222 12.2647C69.516 11.5659 68.6908 11.2212 67.6352 11.2212C66.6834 11.2212 65.8581 11.5457 65.1575 12.2002C64.4645 12.8566 64.117 13.7065 64.117 14.7501C64.117 15.7937 64.4645 16.651 65.1575 17.3074C65.8581 17.9545 66.6834 18.2864 67.6352 18.2864C68.6455 18.2864 69.4953 17.9545 70.1657 17.3C70.6075 16.8667 70.8587 16.2694 70.9248 15.506H67.6352V14.4404H72.0239C72.0767 14.6708 72.0918 14.8939 72.0918 15.1096Z" fill="white" stroke="white" stroke-width="0.16" stroke-miterlimit="10"/>
<path d="M79.0541 11.4146H74.9317V14.2171H78.6481V15.2828H74.9317V18.0853H79.0541V19.1712H73.7646V10.3286H79.0541V11.4146Z" fill="white" stroke="white" stroke-width="0.16" stroke-miterlimit="10"/>
<path d="M83.9681 19.1712H82.8011V11.4146H80.2725V10.3286H86.4986V11.4146H83.9681V19.1712Z" fill="white" stroke="white" stroke-width="0.16" stroke-miterlimit="10"/>
<path d="M91.0029 19.1712V10.3286H92.1681V19.1712H91.0029Z" fill="white" stroke="white" stroke-width="0.16" stroke-miterlimit="10"/>
<path d="M97.3353 19.1712H96.1777V11.4146H93.6396V10.3286H99.8733V11.4146H97.3353V19.1712Z" fill="white" stroke="white" stroke-width="0.16" stroke-miterlimit="10"/>
<path d="M111.661 18.0338C110.768 18.928 109.661 19.3742 108.341 19.3742C107.014 19.3742 105.907 18.928 105.014 18.0338C104.122 17.1414 103.679 16.0463 103.679 14.7501C103.679 13.4539 104.122 12.3588 105.014 11.4664C105.907 10.5722 107.014 10.126 108.341 10.126C109.654 10.126 110.76 10.5722 111.654 11.4738C112.552 12.3735 112.996 13.4613 112.996 14.7501C112.996 16.0463 112.552 17.1414 111.661 18.0338ZM105.877 17.2926C106.549 17.9545 107.367 18.2864 108.341 18.2864C109.308 18.2864 110.133 17.9545 110.798 17.2926C111.468 16.6307 111.808 15.7808 111.808 14.7501C111.808 13.7194 111.468 12.8695 110.798 12.2076C110.133 11.5457 109.308 11.2138 108.341 11.2138C107.367 11.2138 106.549 11.5457 105.877 12.2076C105.206 12.8695 104.867 13.7194 104.867 14.7501C104.867 15.7808 105.206 16.6307 105.877 17.2926Z" fill="white" stroke="white" stroke-width="0.16" stroke-miterlimit="10"/>
<path d="M114.632 19.1712V10.3286H116.048L120.452 17.2058H120.503L120.452 15.5059V10.3286H121.617V19.1712H120.401L115.789 11.9548H115.738L115.789 13.6621V19.1712H114.632Z" fill="white" stroke="white" stroke-width="0.16" stroke-miterlimit="10"/>
<path d="M103.39 32.085C99.8412 32.085 96.9425 34.7216 96.9425 38.3593C96.9425 41.9675 99.8412 44.6317 103.39 44.6317C106.945 44.6317 109.844 41.9675 109.844 38.3593C109.844 34.7216 106.945 32.085 103.39 32.085ZM103.39 42.1611C101.443 42.1611 99.7676 40.5921 99.7676 38.3593C99.7676 36.097 101.443 34.5557 103.39 34.5557C105.337 34.5557 107.019 36.097 107.019 38.3593C107.019 40.5921 105.337 42.1611 103.39 42.1611ZM89.3227 32.085C85.7668 32.085 82.8756 34.7216 82.8756 38.3593C82.8756 41.9675 85.7668 44.6317 89.3227 44.6317C92.8767 44.6317 95.7698 41.9675 95.7698 38.3593C95.7698 34.7216 92.8767 32.085 89.3227 32.085ZM89.3227 42.1611C87.3738 42.1611 85.6931 40.5921 85.6931 38.3593C85.6931 36.097 87.3738 34.5557 89.3227 34.5557C91.2696 34.5557 92.9447 36.097 92.9447 38.3593C92.9447 40.5921 91.2696 42.1611 89.3227 42.1611ZM72.5837 34.0081V36.6741H79.1044C78.9137 38.1639 78.4038 39.2591 77.622 40.0224C76.6702 40.9443 75.1878 41.9675 72.5837 41.9675C68.5708 41.9675 65.4284 38.8055 65.4284 34.8875C65.4284 30.9696 68.5708 27.8075 72.5837 27.8075C74.7535 27.8075 76.3322 28.6354 77.4974 29.7084L79.4217 27.8297C77.792 26.3104 75.624 25.1433 72.5837 25.1433C67.0808 25.1433 62.4561 29.5148 62.4561 34.8875C62.4561 40.2602 67.0808 44.6317 72.5837 44.6317C75.5579 44.6317 77.792 43.6804 79.5482 41.8956C81.3479 40.1385 81.9087 37.6679 81.9087 35.673C81.9087 35.0535 81.8559 34.4838 81.7614 34.0081H72.5837ZM141.032 36.0749C140.501 34.6718 138.864 32.085 135.529 32.085C132.224 32.085 129.473 34.6276 129.473 38.3593C129.473 41.8735 132.196 44.6317 135.846 44.6317C138.798 44.6317 140.501 42.8747 141.202 41.8514L139.011 40.4262C138.28 41.4697 137.285 42.1611 135.846 42.1611C134.416 42.1611 133.391 41.5213 132.734 40.2602L141.328 36.7884L141.032 36.0749ZM132.269 38.1639C132.196 35.7449 134.194 34.5059 135.625 34.5059C136.747 34.5059 137.698 35.0535 138.016 35.8371L132.269 38.1639ZM125.284 44.2501H128.109V25.8126H125.284V44.2501ZM120.657 33.4826H120.563C119.928 32.7488 118.718 32.085 117.185 32.085C113.967 32.085 111.024 34.8433 111.024 38.3796C111.024 41.8956 113.967 44.6317 117.185 44.6317C118.718 44.6317 119.928 43.9625 120.563 43.2065H120.657V44.1063C120.657 46.505 119.345 47.7938 117.228 47.7938C115.502 47.7938 114.431 46.5769 113.989 45.5536L111.532 46.5548C112.241 48.2178 114.116 50.2644 117.228 50.2644C120.54 50.2644 123.335 48.3617 123.335 43.732V32.4667H120.657V33.4826ZM117.426 42.1611C115.479 42.1611 113.85 40.57 113.85 38.3796C113.85 36.1689 115.479 34.5557 117.426 34.5557C119.345 34.5557 120.858 36.1689 120.858 38.3796C120.858 40.57 119.345 42.1611 117.426 42.1611ZM154.258 25.8126H147.501V44.2501H150.319V37.2641H154.258C157.387 37.2641 160.456 35.0535 160.456 31.5374C160.456 28.0233 157.38 25.8126 154.258 25.8126ZM154.332 34.6995H150.319V28.3773H154.332C156.435 28.3773 157.636 30.0827 157.636 31.5374C157.636 32.9645 156.435 34.6995 154.332 34.6995ZM171.749 32.05C169.713 32.05 167.596 32.9276 166.725 34.8728L169.226 35.8961C169.764 34.8728 170.753 34.5409 171.8 34.5409C173.261 34.5409 174.744 35.3983 174.766 36.912V37.1056C174.257 36.8179 173.165 36.392 171.822 36.392C169.129 36.392 166.386 37.8394 166.386 40.5405C166.386 43.0111 168.591 44.6022 171.071 44.6022C172.967 44.6022 174.013 43.767 174.67 42.7954H174.766V44.2206H177.488V37.148C177.488 33.879 174.987 32.05 171.749 32.05ZM171.409 42.1538C170.487 42.1538 169.203 41.7076 169.203 40.5921C169.203 39.165 170.804 38.6174 172.191 38.6174C173.431 38.6174 174.013 38.8848 174.766 39.2369C174.545 40.9443 173.04 42.1538 171.409 42.1538ZM187.402 32.4538L184.163 40.4464H184.067L180.719 32.4538H177.68L182.711 43.6232L179.841 49.8385H182.785L190.537 32.4538H187.402ZM162.004 44.2501H164.829V25.8126H162.004V44.2501Z" fill="white"/>
<path d="M16.2192 11.1197C15.7754 11.5732 15.5186 12.2794 15.5186 13.1939V45.8135C15.5186 46.728 15.7754 47.4342 16.2192 47.8877L16.3287 47.9873L35.0505 29.7157V29.2843L16.3287 11.0127L16.2192 11.1197Z" fill="url(#paint0_linear_613_99485)"/>
<path d="M41.2874 35.8093L35.0537 29.7157V29.2843L41.295 23.1907L41.4347 23.27L48.826 27.376C50.9354 28.5413 50.9354 30.4588 48.826 31.6314L41.4347 35.73L41.2874 35.8093Z" fill="url(#paint1_linear_613_99485)"/>
<path d="M41.4341 35.7301L35.0531 29.5001L16.2217 47.8878C16.9223 48.6069 18.0648 48.6936 19.364 47.9745L41.4341 35.7301Z" fill="url(#paint2_linear_613_99485)"/>
<path d="M41.4341 23.27L19.364 11.0256C18.0648 10.3139 16.9223 10.4006 16.2217 11.1197L35.0531 29.5L41.4341 23.27Z" fill="url(#paint3_linear_613_99485)"/>
<defs>
<linearGradient id="paint0_linear_613_99485" x1="33.3883" y1="46.1532" x2="8.64132" y2="20.8066" gradientUnits="userSpaceOnUse">
<stop stop-color="#00A0FF"/>
<stop offset="0.0066" stop-color="#00A1FF"/>
<stop offset="0.2601" stop-color="#00BEFF"/>
<stop offset="0.5122" stop-color="#00D2FF"/>
<stop offset="0.7604" stop-color="#00DFFF"/>
<stop offset="1" stop-color="#00E3FF"/>
</linearGradient>
<linearGradient id="paint1_linear_613_99485" x1="51.5728" y1="29.4979" x2="15.0175" y2="29.4979" gradientUnits="userSpaceOnUse">
<stop stop-color="#FFE000"/>
<stop offset="0.4087" stop-color="#FFBD00"/>
<stop offset="0.7754" stop-color="#FFA500"/>
<stop offset="1" stop-color="#FF9C00"/>
</linearGradient>
<linearGradient id="paint2_linear_613_99485" x1="37.9643" y1="26.1134" x2="4.40539" y2="-8.25867" gradientUnits="userSpaceOnUse">
<stop stop-color="#FF3A44"/>
<stop offset="1" stop-color="#C31162"/>
</linearGradient>
<linearGradient id="paint3_linear_613_99485" x1="11.4814" y1="58.7401" x2="26.467" y2="43.3916" gradientUnits="userSpaceOnUse">
<stop stop-color="#32A071"/>
<stop offset="0.0685" stop-color="#2DA771"/>
<stop offset="0.4762" stop-color="#15CF74"/>
<stop offset="0.8009" stop-color="#06E775"/>
<stop offset="1" stop-color="#00F076"/>
</linearGradient>
</defs>
</svg>
